<?xml version="1.0" encoding="utf-8"?>
<!-- Generator: Adobe Illustrator 19.2.1, SVG Export Plug-In . SVG Version: 6.00 Build 0)  -->
<svg version="1.1" id="Capa_1" xmlns="http://www.w3.org/2000/svg" xmlns:xlink="http://www.w3.org/1999/xlink" x="0px" y="0px"
	 viewBox="0 0 384 287" style="enable-background:new 0 0 384 287;" xml:space="preserve">
<style type="text/css">
	.st0{clip-path:url(#SVGID_2_);}
	.st1{fill:#B5C5E2;}
	.st2{fill:#0033A0;}
	.st3{fill:#FFFFFF;}
	.st4{fill:#00AEC7;}
	.st5{fill:none;stroke:#FFFFFF;stroke-width:10.125;stroke-linecap:round;stroke-linejoin:round;}
</style>
<title>survey</title>
<g>
	<defs>
		<rect id="SVGID_1_" width="384" height="287"/>
	</defs>
	<clipPath id="SVGID_2_">
		<use xlink:href="#SVGID_1_"  style="overflow:visible;"/>
	</clipPath>
	<g id="Page-5" class="st0">
		<g id="ARL-Home-Encuesta" transform="translate(-728.000000, -250.000000)">
			<g id="Encuesta" transform="translate(171.000000, 229.000000)">
				<g id="Survey" transform="translate(473.000000, 0.000000)">
					<g id="survey" transform="translate(84.000000, 21.000000)">
						<g id="Rectangle">
							<path class="st1" d="M36,63h312c17.7,0,32,14.3,32,32v258c0,17.7-14.3,32-32,32H36c-17.7,0-32-14.3-32-32V95
								C4,77.3,18.3,63,36,63z"/>
							<path class="st2" d="M348,389H36c-19.9,0-36-16.1-36-36V95c0-19.9,16.1-36,36-36h312c19.9,0,36,16.1,36,36v258
								C384,372.9,367.9,389,348,389z M36,67C20.6,67,8,79.6,8,95v258c0,15.4,12.6,28,28,28h312c15.4,0,28-12.6,28-28V95
								c0-15.4-12.6-28-28-28H36z"/>
						</g>
						<g id="Rectangle_1_">
							<rect x="37" y="101" class="st3" width="308" height="247"/>
							<path class="st2" d="M346,349H36V100h310V349z M38,347h306V102H38V347z"/>
						</g>
						<path id="Rectangle_2_" class="st4" d="M100,47h166c3.9,0,7,3.1,7,7v58c0,3.9-3.1,7-7,7H100c-3.9,0-7-3.1-7-7V54
							C93,50.1,96.1,47,100,47z"/>
						<path id="Path" class="st2" d="M192,22c11.9,0,21.2,6.2,28,18.7c2.1,3.9,6.1,6.3,10.5,6.3H276c3.3,0,6,2.7,6,6v51
							c0,3.3-2.7,6-6,6H108c-3.3,0-6-2.7-6-6V53c0-3.3,2.7-6,6-6h44.7c4.3,0,8.3-2.3,10.4-6C170.4,28.3,180,22,192,22z"/>
						<circle id="Oval" class="st4" cx="191.5" cy="44.5" r="10.5"/>
						<circle id="Oval_1_" class="st1" cx="191" cy="185" r="43"/>
						<path id="Rectangle_3_" class="st2" d="M86,241h19c4.4,0,8,3.6,8,8v19c0,4.4-3.6,8-8,8H86c-4.4,0-8-3.6-8-8v-19
							C78,244.6,81.6,241,86,241z"/>
						<path id="Rectangle_4_" class="st1" d="M135,241h165c2.2,0,4,1.8,4,4l0,0c0,2.2-1.8,4-4,4H135c-2.2,0-4-1.8-4-4l0,0
							C131,242.8,132.8,241,135,241z"/>
						<path id="Rectangle_5_" class="st1" d="M135,254h165c2.2,0,4,1.8,4,4l0,0c0,2.2-1.8,4-4,4H135c-2.2,0-4-1.8-4-4l0,0
							C131,255.8,132.8,254,135,254z"/>
						<path id="Rectangle_6_" class="st1" d="M135,268h165c2.2,0,4,1.8,4,4l0,0c0,2.2-1.8,4-4,4H135c-2.2,0-4-1.8-4-4l0,0
							C131,269.8,132.8,268,135,268z"/>
						<g id="Oval_2_">
							<circle class="st1" cx="197" cy="179" r="39.2"/>
							<path class="st2" d="M197,222c-23.7,0-43-19.3-43-43c0-23.7,19.3-43,43-43c23.7,0,43,19.3,43,43C240,202.7,220.7,222,197,222
								z M197,143.6c-19.5,0-35.4,15.9-35.4,35.4c0,19.5,15.9,35.4,35.4,35.4c19.5,0,35.4-15.9,35.4-35.4
								C232.4,159.5,216.5,143.6,197,143.6z"/>
						</g>
						<polyline id="Path_1_" class="st5" points="177,184 187.3,194 218,164 						"/>
					</g>
				</g>
			</g>
		</g>
	</g>
</g>
</svg>
